<?xml version="1.0" encoding="UTF-8"?>
<svg width="24px" height="24px" viewBox="0 0 24 24" version="1.1" xmlns="http://www.w3.org/2000/svg" xmlns:xlink="http://www.w3.org/1999/xlink">
    <!-- Generator: Sketch 59.1 (86144) - https://sketch.com -->
    <title>facebook active</title>
    <desc>Created with Sketch.</desc>
    <g id="facebook-active" stroke="none" stroke-width="1" fill="none" fill-rule="evenodd">
        <g id="facebook" transform="translate(6.000000, 2.000000)" fill="#3B5999">
            <path d="M10.6936493,0.00390127181 L8.02825484,0 C5.03412924,0 3.09862467,1.93216989 3.09862467,4.92210461 L3.09862467,7.19186455 L0.418530813,7.19186455 C0.187884522,7.19186455 0,7.37366381 0,7.59915733 L0,10.8879295 C0,11.1123826 0.187884522,11.2952222 0.418530813,11.2952222 L3.09862467,11.2952222 L3.09862467,19.5927072 C3.09862467,19.8171604 3.2865092,20 3.51822453,20 L7.01346461,20 C7.24517995,20 7.43306447,19.8171604 7.43306447,19.5927072 L7.43306447,11.2952222 L10.5661658,11.2952222 C10.7978812,11.2952222 10.9849639,11.1123826 10.9849639,10.8879295 L10.9868347,7.59915733 C10.9868347,7.49148222 10.9419349,7.38796848 10.8636274,7.3107233 C10.7853199,7.23451845 10.67895,7.19186455 10.5672349,7.19186455 L7.43306447,7.19186455 L7.43306447,5.26775729 C7.43306447,4.34315587 7.65970184,3.87370283 8.89685327,3.87370283 L10.6925803,3.87266249 C10.9242956,3.87266249 11.1111111,3.68982288 11.1111111,3.46536971 L11.1111111,0.412494473 C11.1111111,0.186740878 10.9242956,0.00494161097 10.6936493,0.00390127181 Z"></path>
        </g>
    </g>
</svg>