<?xml version="1.0" encoding="UTF-8"?>
<svg width="24px" height="24px" viewBox="0 0 24 24" version="1.1" xmlns="http://www.w3.org/2000/svg" xmlns:xlink="http://www.w3.org/1999/xlink">
    <!-- Generator: Sketch 59.1 (86144) - https://sketch.com -->
    <title>Instagram/active</title>
    <desc>Created with Sketch.</desc>
    <defs>
        <linearGradient x1="8.3918274%" y1="91.6080519%" x2="91.6081538%" y2="8.39109063%" id="linearGradient-1">
            <stop stop-color="#FFD600" offset="0%"></stop>
            <stop stop-color="#FF0100" offset="50%"></stop>
            <stop stop-color="#D800B9" offset="100%"></stop>
        </linearGradient>
        <linearGradient x1="14.6448468%" y1="85.3554237%" x2="85.3554617%" y2="14.6448087%" id="linearGradient-2">
            <stop stop-color="#FF6400" offset="0%"></stop>
            <stop stop-color="#FF0100" offset="50%"></stop>
            <stop stop-color="#FD0056" offset="100%"></stop>
        </linearGradient>
        <linearGradient x1="14.6471982%" y1="85.3539573%" x2="85.3546499%" y2="14.6465056%" id="linearGradient-3">
            <stop stop-color="#F30072" offset="0%"></stop>
            <stop stop-color="#E50097" offset="100%"></stop>
        </linearGradient>
    </defs>
    <g id="Instagram/active" stroke="none" stroke-width="1" fill="none" fill-rule="evenodd">
        <g id="instagram" transform="translate(3.000000, 3.000000)" fill-rule="nonzero">
            <path d="M17.9458924,5.28936768 C17.9020844,4.33135986 17.7499237,3.67712402 17.5274506,3.10473633 C17.3015442,2.50419618 16.9472351,1.96023558 16.4893799,1.51062012 C16.0399017,1.05276488 15.4958038,0.698318473 14.8952637,0.472274789 C14.3227387,0.249938965 13.6686401,0.0979156406 12.7106323,0.0543823242 C11.7508392,0.0104370117 11.4441834,0 9,0 C6.55581663,0 6.24916076,0.0104370117 5.28936768,0.0541076484 C4.33135986,0.0979156406 3.67726134,0.250076285 3.10473633,0.47254943 C2.50419618,0.698455828 1.96023558,1.05276488 1.51062012,1.51062012 C1.05276488,1.96009826 0.698318473,2.50405882 0.472274789,3.10459901 C0.249938965,3.67712402 0.0979156406,4.33135986 0.0543823242,5.28923036 C0.0104370117,6.24916076 0,6.55567931 0,8.99986268 C0,11.4441834 0.0104370117,11.7508392 0.0543823242,12.7106323 C0.0980529609,13.6685028 0.250213641,14.3227387 0.47268675,14.8952637 C0.698593148,15.4956665 1.05290223,16.0397644 1.51075744,16.4892426 C1.96023558,16.9470978 2.5043335,17.3014069 3.10487365,17.5273132 C3.67726134,17.7499237 4.33149718,17.901947 5.289505,17.945755 C6.24943543,17.989563 6.55595399,17.9998627 9.00013732,17.9998627 C11.4443207,17.9998627 11.7509766,17.989563 12.7107696,17.945755 C13.6687775,17.901947 14.322876,17.7499237 14.895401,17.5273132 C16.1043091,17.059845 17.0599823,16.1041718 17.5274506,14.8952637 C17.750061,14.3227387 17.9020844,13.6685028 17.9458924,12.7106323 C17.989563,11.7507019 18,11.4441834 18,9 C18,6.55567931 17.989563,6.24916076 17.9458924,5.28936768 Z M16.3258209,12.6368866 C16.2858582,13.5144195 16.1391907,13.9909515 16.0160065,14.3080444 C15.7131958,15.0930176 15.0928803,15.7133331 14.3079071,16.0161438 C13.9908142,16.139328 13.5142822,16.2859955 12.6367493,16.3259582 C11.6879425,16.3693543 11.4032593,16.378418 9,16.378418 C6.5966034,16.378418 6.3120575,16.3693543 5.36311339,16.3259582 C4.48571777,16.2859955 4.00918577,16.139328 3.69195557,16.0161438 C3.30111696,15.8718109 2.94749452,15.6417847 2.65718078,15.3428192 C2.35821533,15.0525055 2.12818908,14.6990204 1.98385622,14.3080444 C1.86067199,13.9909515 1.71400451,13.5144195 1.67404177,12.6368866 C1.63078309,11.6879425 1.62158203,11.4032593 1.62158203,9.00013732 C1.62158203,6.59687804 1.63078309,6.31233214 1.67404177,5.36325075 C1.71414183,4.48571777 1.86067199,4.00918577 1.98385622,3.69209289 C2.12818908,3.30111696 2.35835265,2.94749452 2.65718078,2.65718078 C2.94749452,2.35821533 3.30111696,2.12818908 3.69209289,1.98399354 C4.00918577,1.86067199 4.48571777,1.71414183 5.36325075,1.67404177 C6.31219482,1.63078309 6.59687804,1.62158203 9,1.62158203 L8.99986268,1.62158203 C11.4029846,1.62158203 11.6876679,1.63078309 12.6367493,1.67417909 C13.5142822,1.71414183 13.9906769,1.86080934 14.3079071,1.98399354 C14.6987457,2.1283264 15.0523682,2.35835265 15.3426819,2.65718078 C15.6416473,2.94749452 15.8716736,3.30111696 16.0158691,3.69209289 C16.1391907,4.00918577 16.2858582,4.48571777 16.3258209,5.36325075 C16.3690796,6.31219482 16.3782806,6.59687804 16.3782806,9 C16.3782806,11.4032593 16.3692169,11.6878052 16.3258209,12.6368866 Z" id="Shape" fill="url(#linearGradient-1)"></path>
            <path d="M8.99986268,4.3783264 C6.44746398,4.3783264 4.3783264,6.44760134 4.3783264,9 C4.3783264,11.5523987 6.44746398,13.6215362 8.99986268,13.6215362 C11.5523987,13.6215362 13.6215362,11.5523987 13.6215362,9 C13.6215362,6.44760134 11.5523987,4.3783264 8.99986268,4.3783264 Z M8.99986268,11.9999542 C7.3431244,11.9998169 5.99990843,10.6567383 6.00004579,8.99986268 C6.00004579,7.3431244 7.3431244,5.99990843 9,5.99990843 C10.6568756,6.00004579 11.9999542,7.3431244 11.9999542,8.99986268 C11.9999542,10.6567383 10.6567383,11.9999542 8.99986268,11.9999542 Z" id="Shape" fill="url(#linearGradient-2)"></path>
            <path d="M14.88414,4.19581603 C14.88414,4.79223633 14.4006043,5.27577209 13.804184,5.27577209 C13.2076264,5.27577209 12.7240906,4.79223633 12.7240906,4.19581603 C12.7240906,3.59925841 13.2076264,3.11572266 13.804184,3.11572266 C14.4006043,3.11572266 14.88414,3.59925841 14.88414,4.19581603 L14.88414,4.19581603 Z" id="Path" fill="url(#linearGradient-3)"></path>
        </g>
    </g>
</svg>