<?xml version="1.0" encoding="UTF-8"?>
<svg width="76px" height="76px" viewBox="0 0 76 76" version="1.1" xmlns="http://www.w3.org/2000/svg" xmlns:xlink="http://www.w3.org/1999/xlink">
    <!-- Generator: Sketch 60 (88103) - https://sketch.com -->
    <title>language</title>
    <desc>Created with Sketch.</desc>
    <g id="Main" stroke="none" stroke-width="1" fill="none" fill-rule="evenodd">
        <g id="Main_light" transform="translate(-244.000000, -1663.000000)" fill="#EAEAEA" fill-rule="nonzero">
            <g id="language" transform="translate(244.000000, 1663.000000)">
                <path d="M37.9862069,0 C17.007236,0 0,17.007236 0,37.9862069 C0,58.9651778 17.007236,75.9724138 37.9862069,75.9724138 C58.9651778,75.9724138 75.9724138,58.9651778 75.9724138,37.9862069 C75.9489196,17.0171282 58.9552856,0.0234941524 37.9862069,0 Z M70.8389587,51.2937446 L60.0360129,53.1578139 C61.2725431,48.6228394 61.9402694,43.9518467 62.0237352,39.2524138 L73.4084684,39.2524138 C73.2656493,43.3861342 72.3957503,47.4623559 70.8389587,51.2937446 L70.8389587,51.2937446 Z M2.56394535,39.2524138 L13.9486786,39.2524138 C14.0321444,43.9518467 14.6998707,48.6228394 15.9364009,53.1578139 L5.13345505,51.2937446 C3.57666348,47.4623559 2.70676447,43.3861342 2.56394535,39.2524138 Z M5.13345505,24.6786692 L15.9364009,22.8145999 C14.6998707,27.3495744 14.0321444,32.0205671 13.9486786,36.72 L2.56394535,36.72 C2.70676447,32.5862796 3.57666348,28.5100579 5.13345505,24.6786692 Z M39.2524138,20.3304109 C43.8022266,20.3885277 48.3409106,20.8027654 52.8264238,21.5700323 L57.2958621,22.3410089 C58.6690288,27.0138564 59.4078556,31.849926 59.4925579,36.72 L39.2524138,36.72 L39.2524138,20.3304109 Z M53.2579728,19.0740962 C48.6302586,18.2833351 43.9469006,17.8561139 39.2524138,17.7979971 L39.2524138,2.60351432 C46.5114641,3.30091733 52.8171498,9.94726693 56.390722,19.6200243 L53.2579728,19.0740962 Z M36.72,17.7979971 C32.0255132,17.8561139 27.3433916,18.2833351 22.7156775,19.0740962 L19.5816918,19.6163147 C23.155264,9.94108436 29.4609497,3.29226154 36.72,2.59794981 L36.72,17.7979971 Z M23.1472266,21.5700323 C27.6321215,20.8027654 32.1701872,20.3885277 36.72,20.3304109 L36.72,36.72 L16.4798559,36.72 C16.5645582,31.849926 17.303385,27.0138564 18.6765517,22.3410089 L23.1472266,21.5700323 Z M16.4798559,39.2524138 L36.72,39.2524138 L36.72,55.6420029 C32.1701872,55.5838861 27.6315032,55.1696484 23.14599,54.4023815 L18.6765517,53.6314049 C17.303385,48.9585574 16.5645582,44.1224878 16.4798559,39.2524138 L16.4798559,39.2524138 Z M22.714441,56.8983176 C27.3421552,57.6903153 32.024895,58.1193912 36.72,58.1812177 L36.72,73.3757004 C29.4609497,72.6776792 23.155264,66.0313294 19.5816918,56.3585722 L22.714441,56.8983176 Z M39.2524138,58.1812177 C43.9469006,58.1193912 48.6290222,57.6903153 53.2567363,56.8983176 L56.390722,56.3560991 C52.8171498,66.0313294 46.5114641,72.6801522 39.2524138,73.374464 L39.2524138,58.1812177 Z M52.8251872,54.4023815 C48.3402923,55.1696484 43.8022266,55.5838861 39.2524138,55.6420029 L39.2524138,39.2524138 L59.4925579,39.2524138 C59.4078556,44.1224878 58.6690288,48.9585574 57.2958621,53.6314049 L52.8251872,54.4023815 Z M62.0237352,36.72 C61.9402694,32.0205671 61.2725431,27.3495744 60.0360129,22.8145999 L70.8389587,24.6786692 C72.3957503,28.5100579 73.2656493,32.5862796 73.4084684,36.72 L62.0237352,36.72 Z M69.5579135,21.8878205 L59.2025916,20.1010345 C57.3409954,14.0278165 53.8583082,8.5771915 49.1285804,4.33651139 C57.9728624,7.28810884 65.3073411,13.5888484 69.5579135,21.8878205 Z M26.8438334,4.33651139 C22.1141056,8.5771915 18.6314184,14.0278165 16.7698222,20.1010345 L6.41450031,21.8878205 C10.6650727,13.5888484 17.9995514,7.28810884 26.8438334,4.33651139 Z M6.41450031,54.0845933 L16.7698222,55.8713793 C18.6314184,61.9445973 22.1141056,67.3952223 26.8438334,71.6359024 C17.9995514,68.684305 10.6650727,62.3835654 6.41450031,54.0845933 Z M49.1285804,71.6359024 C53.8583082,67.3952223 57.3409954,61.9445973 59.2025916,55.8713793 L69.5579135,54.0845933 C65.3073411,62.3835654 57.9728624,68.684305 49.1285804,71.6359024 Z" id="Shape"></path>
            </g>
        </g>
    </g>
</svg>