<?xml version="1.0" encoding="UTF-8"?>
<svg width="79px" height="77px" viewBox="0 0 79 77" version="1.1" xmlns="http://www.w3.org/2000/svg" xmlns:xlink="http://www.w3.org/1999/xlink">
    <!-- Generator: Sketch 60 (88103) - https://sketch.com -->
    <title>location</title>
    <desc>Created with Sketch.</desc>
    <g id="Main" stroke="none" stroke-width="1" fill="none" fill-rule="evenodd">
        <g id="Main_light" transform="translate(-1036.000000, -1662.000000)" fill="#EAEAEA" fill-rule="nonzero" stroke="#EAEAEA" stroke-width="0.5">
            <g id="location" transform="translate(1037.000000, 1662.000000)">
                <path d="M38.922,33.4443871 C43.776871,33.4443871 47.7284516,29.4928065 47.7284516,24.6379355 C47.7284516,19.7830645 43.776871,15.8314839 38.922,15.8314839 C34.067129,15.8314839 30.1155484,19.7830645 30.1155484,24.6379355 C30.1155484,29.4928065 34.065871,33.4443871 38.922,33.4443871 Z M38.922,18.3476129 C42.3904839,18.3476129 45.2123226,21.1694516 45.2123226,24.6379355 C45.2123226,28.1064194 42.3904839,30.9282581 38.922,30.9282581 C35.4535161,30.9282581 32.6316774,28.1064194 32.6316774,24.6379355 C32.6316774,21.1694516 35.4535161,18.3476129 38.922,18.3476129 Z" id="Shape"></path>
                <path d="M63.1749677,47.2830968 L54.1659677,47.2830968 L57.9992903,41.7476129 C65.2394516,32.097 64.1914839,16.2340645 55.7586774,7.80251613 C51.2032258,3.24580645 45.1443871,0.735967742 38.6993226,0.735967742 C32.2555161,0.735967742 26.1966774,3.24580645 21.6399677,7.80251613 C13.2071613,16.2340645 12.1591935,32.0982581 19.3704194,41.709871 L23.2301613,47.2843548 L13.7783226,47.2843548 L0,76.2185806 L76.9532903,76.2185806 L63.1749677,47.2830968 Z M21.4122581,40.2379355 C14.8715806,31.5157742 15.8088387,17.1901935 23.420129,9.58016129 C27.5012903,5.499 32.9285806,3.25083871 38.7005806,3.25083871 C44.4725806,3.25083871 49.8986129,5.499 53.9810323,9.58016129 C61.5923226,17.1901935 62.5295806,31.5170323 55.9599677,40.2756774 L38.6993226,65.2017097 L26.2910323,47.2830968 L26.2910323,47.2830968 L21.4122581,40.2379355 Z M15.3685161,49.7992258 L24.9725806,49.7992258 L38.6993226,69.6225484 L52.4248065,49.7992258 L61.5847742,49.7992258 L72.9677419,73.7024516 L3.98554839,73.7024516 L15.3685161,49.7992258 Z" id="Shape"></path>
            </g>
        </g>
    </g>
</svg>