<?xml version="1.0" encoding="UTF-8"?>
<svg width="100px" height="17px" viewBox="0 0 100 17" version="1.1" xmlns="http://www.w3.org/2000/svg" xmlns:xlink="http://www.w3.org/1999/xlink">
    <!-- Generator: Sketch 59.1 (86144) - https://sketch.com -->
    <title>logo safaroff</title>
    <desc>Created with Sketch.</desc>
    <g id="Page-1" stroke="none" stroke-width="1" fill="none" fill-rule="evenodd">
        <g id="logo-safaroff" fill="#FFFFFF" fill-rule="nonzero">
            <path d="M35.5114706,16.4938891 L35.1179832,15.665902 L33.8726702,15.665902 L33.4826883,16.4938891 L33.0681682,16.2980873 L34.4931358,13.2741345 L35.9268671,16.2980873 L35.5114706,16.4938891 L35.5114706,16.4938891 Z M34.0908848,15.2049336 L34.8988922,15.2049336 L34.4931358,14.3497275 L34.0908848,15.2049336 L34.0908848,15.2049336 Z" id="Fill-1"></path>
            <path d="M40.6355701,16.4666701 C40.4287481,16.4666701 40.228937,16.4254024 40.0343845,16.3437451 C39.8450899,16.2638439 39.6812097,16.1540895 39.5418679,16.0100918 C39.3955152,15.865216 39.2842169,15.7001454 39.2070967,15.5166361 C39.1247188,15.3208343 39.0852823,15.1197642 39.0852823,14.9099138 C39.0852823,14.6983074 39.1247188,14.4963593 39.2070967,14.3031916 C39.2465331,14.2101199 39.2929806,14.1231944 39.3499444,14.0415371 C39.4042789,13.9598799 39.470006,13.8817347 39.5418679,13.8071017 C39.6812097,13.6674942 39.8450899,13.5559837 40.0343845,13.4743265 C40.2228026,13.3953033 40.4243664,13.3566697 40.6355701,13.3566697 C40.9063665,13.3566697 41.1570063,13.4190103 41.390119,13.5463253 C41.5022939,13.6095439 41.6057047,13.6815427 41.6985992,13.7702243 C41.7923701,13.8571497 41.8729957,13.9546116 41.9413521,14.06261 L41.5548757,14.3146061 C41.4514645,14.1565597 41.3217629,14.0327568 41.1605117,13.9458313 C41.0001371,13.8606619 40.8248644,13.8167601 40.6355701,13.8167601 C40.4857119,13.8167601 40.3428642,13.8457353 40.2105334,13.9010515 C40.0782026,13.9590018 39.9625226,14.038025 39.8643696,14.137243 C39.7653408,14.2338268 39.6882207,14.3523615 39.6303807,14.4823107 C39.5734169,14.6175281 39.5444969,14.7597698 39.5444969,14.9099138 C39.5444969,15.0609359 39.5734169,15.2014214 39.6303807,15.3357609 C39.6882207,15.4683441 39.7653408,15.5842448 39.8643696,15.6852188 C39.9625226,15.7844368 40.0782026,15.8634599 40.2105334,15.9196542 C40.3428642,15.9776045 40.4857119,16.0074577 40.6355701,16.0074577 C40.7459919,16.0074577 40.8520316,15.990775 40.9536901,15.9609218 C41.0553482,15.9301906 41.1508719,15.8862889 41.2367557,15.8283386 C41.3243919,15.7703882 41.4006354,15.7027795 41.4689919,15.6255124 C41.5373483,15.5473673 41.5916828,15.4586857 41.6363775,15.3621019 L40.5400464,15.3621019 L40.5400464,14.9028895 L42.1946212,14.9028895 C42.1946212,14.9239624 42.1946212,14.9520595 42.1919922,14.9819127 C42.1902395,15.0126439 42.1876102,15.0416191 42.182352,15.0705943 C42.1779703,15.1039596 42.1735883,15.1355689 42.1674539,15.1698122 C42.1402867,15.3489314 42.0798174,15.5183921 41.9895519,15.6755604 C41.8992864,15.8353628 41.7844829,15.9749704 41.6468939,16.0943831 C41.5040467,16.2164301 41.3454247,16.3077457 41.1745337,16.3718423 C41.0010137,16.4359388 40.8222354,16.4666701 40.6355701,16.4666701" id="Fill-2"></path>
            <polyline id="Fill-3" points="46.2767239 13.887003 46.2767239 14.6175281 47.5483278 14.6175281 47.5483278 15.0784965 46.2767239 15.0784965 46.2767239 15.9345808 47.5895169 15.9345808 47.5895169 16.3937931 45.8175094 16.3937931 45.8175094 13.4277906 47.5895169 13.4277906 47.5895169 13.887003 46.2767239 13.887003"></polyline>
            <polyline id="Fill-4" points="51.8293651 14.3795806 51.8293651 16.3937931 51.3701505 16.3937931 51.3701505 13.2908171 53.5908565 15.4569297 53.5908565 13.4277906 54.050071 13.4277906 54.050071 16.5492053 51.8293651 14.3795806"></polyline>
            <path d="M59.2591779,16.4517435 C59.052356,16.4517435 58.8534214,16.4104758 58.6614978,16.3296965 C58.4774614,16.2515515 58.3144575,16.1435531 58.170734,15.9986773 C58.0278868,15.8573137 57.9183412,15.6922431 57.8420976,15.5078557 C57.7605958,15.3164441 57.7202828,15.1162521 57.7202828,14.9099138 C57.7202828,14.7018195 57.7605958,14.5007494 57.8420976,14.3067037 C57.9183412,14.1214383 58.0278868,13.9590018 58.170734,13.8185162 C58.3118285,13.6797867 58.4757087,13.5673982 58.6614978,13.4857409 C58.756145,13.4444733 58.8534214,13.413742 58.9524506,13.3953033 C59.052356,13.3751085 59.154014,13.3663281 59.2591779,13.3663281 C59.4721344,13.3663281 59.6719451,13.4067177 59.8603636,13.4857409 C59.9497525,13.5270085 60.0347597,13.5744225 60.1162615,13.6262266 C60.1995161,13.6815427 60.27576,13.7438832 60.3467454,13.8167601 L60.0242433,14.1416331 C59.9208325,14.038025 59.8033997,13.9607579 59.6719451,13.9089538 C59.5422432,13.8527596 59.4046542,13.8264186 59.2591779,13.8264186 C59.1110725,13.8264186 58.9717303,13.8553937 58.8402761,13.9107099 C58.7088214,13.9686602 58.5948942,14.0450493 58.4976177,14.1442672 C58.4003413,14.2408511 58.3232212,14.3576297 58.2662577,14.490213 C58.2084177,14.6219183 58.1794977,14.7624039 58.1794977,14.9099138 C58.1794977,15.0565457 58.2084177,15.1987874 58.2662577,15.3304926 C58.3232212,15.4613199 58.4003413,15.5772205 58.4976177,15.6738044 C58.5948942,15.7703882 58.7088214,15.8476553 58.8402761,15.9047276 C58.9717303,15.9635559 59.1110725,15.990775 59.2591779,15.990775 C59.4046542,15.990775 59.5422432,15.965312 59.6719451,15.9117519 C59.8033997,15.8573137 59.9208325,15.7791685 60.0242433,15.6755604 L60.3467454,15.9986773 C60.2047743,16.1435531 60.0417707,16.2515515 59.8603636,16.3296965 C59.6666869,16.4104758 59.4659996,16.4517435 59.2591779,16.4517435" id="Fill-5"></path>
            <polyline id="Fill-6" points="65.2412372 15.2514694 65.2412372 16.3937931 64.7811462 16.3937931 64.7811462 15.2514694 63.537586 13.5858369 63.9047826 13.3092559 65.0098776 14.790501 66.1219833 13.3092559 66.4900558 13.5858369 65.2412372 15.2514694"></polyline>
            <path d="M3.852827,9.32209855 L3.69157607,9.32209855 C3.34628872,9.31419623 2.99223773,9.2711725 2.62854674,9.18951523 C2.26485575,9.1104921 1.92570294,9.00161573 1.61196469,8.86288618 C1.26755371,8.70132773 0.964331814,8.51342823 0.703175397,8.29830958 C0.442895335,8.08494709 0.241331652,7.84963368 0.0949788917,7.59588155 L1.76182291,6.63092101 C1.8152811,6.71960255 1.90554658,6.81355227 2.03261933,6.90574595 C2.15793936,6.99793963 2.30692121,7.08135301 2.48044125,7.1586201 C2.6513322,7.23588713 2.84150315,7.2964716 3.04832502,7.34300746 C3.25427052,7.38866528 3.46635057,7.41237223 3.68105971,7.41237223 L3.737147,7.41237223 C3.91417248,7.42817687 4.12712891,7.41237223 4.37513985,7.36583637 C4.6240272,7.32017855 4.87116181,7.23939926 5.11566731,7.12437674 C5.53719833,6.93120901 5.76768199,6.67657882 5.80536565,6.35170581 C5.81237656,6.2612682 5.80536565,6.18926933 5.78345656,6.13922133 C5.75891838,6.08917333 5.72912201,6.04614961 5.69143835,6.00751607 C5.55209649,5.85473795 5.34264554,5.73795928 5.05782731,5.66244828 C4.6985181,5.55444995 4.28399804,5.50176787 3.81777246,5.50176787 C3.68807062,5.50176787 3.50315785,5.49298752 3.26128143,5.47718287 C3.01940501,5.46313433 2.75824859,5.42450079 2.47430671,5.36391634 C1.76182291,5.19357754 1.20182642,4.90646007 0.796946321,4.4990518 C0.351753495,4.0389614 0.152818904,3.4708727 0.199266188,2.79654175 L0.199266188,2.78424926 C0.22029892,2.46376645 0.296542574,2.15908828 0.423615331,1.87372688 C0.548935359,1.59099958 0.731219038,1.34251565 0.967837269,1.12739706 C1.35869554,0.75072 1.86085202,0.485553405 2.47430671,0.332775298 C2.86428862,0.232679298 3.27617962,0.184387369 3.70997971,0.184387369 C4.14027438,0.184387369 4.56618716,0.236191439 4.97807819,0.34506779 C5.4530674,0.459212352 5.86408202,0.627795087 6.2137512,0.849059926 C6.56166763,1.07383691 6.83421679,1.32934512 7.0349041,1.62260884 L5.40399101,2.65869025 C5.35754374,2.58844744 5.26202005,2.50854625 5.11566731,2.41635256 C4.97106728,2.32503691 4.76775087,2.24776983 4.50747079,2.18542933 C4.25507801,2.12484491 3.99041612,2.09235761 3.71436155,2.08884547 C3.43830692,2.0844553 3.19029596,2.11343045 2.96682319,2.17489291 C2.76876496,2.2196727 2.61364855,2.27850106 2.50147398,2.34698779 C2.39192851,2.41635256 2.30692121,2.48835144 2.2490812,2.56035031 C2.19211755,2.63322723 2.15531027,2.70171396 2.14041208,2.7675666 C2.12463754,2.83341923 2.11850299,2.87995509 2.11850299,2.91156435 C2.11850299,2.99585572 2.12726663,3.05907425 2.14654663,3.10209796 C2.16495028,3.14248758 2.18685937,3.17673094 2.20964483,3.19955986 C2.32444849,3.31370442 2.53127035,3.40853222 2.83011042,3.48140912 C3.12895049,3.55428604 3.45846329,3.59028547 3.81777246,3.59028547 C4.5539181,3.59028547 5.20155098,3.68774739 5.76592926,3.88442721 C6.3276785,4.08110708 6.78163494,4.36120028 7.12604596,4.72997501 C7.34864237,4.97582485 7.51252237,5.2497718 7.62031513,5.55357193 C7.72810788,5.85649405 7.76228609,6.17961094 7.72460244,6.52731285 C7.67815519,7.02515872 7.50638782,7.47207859 7.20667141,7.86631637 C6.90783135,8.26231018 6.49944577,8.58630514 5.97800931,8.83830118 C5.65726017,8.99371341 5.31022006,9.11224813 4.93864179,9.1965395 C4.56618716,9.27995287 4.20424892,9.32209855 3.852827,9.32209855" id="Fill-7"></path>
            <path d="M15.3647424,7.30788605 L14.5374549,9.2070759 L12.4113962,9.2070759 L16.2595099,0.309068351 L18.2935503,0.309068351 L22.153933,9.2070759 L20.0173579,9.2070759 L19.2023396,7.30788605 L15.3647424,7.30788605 L15.3647424,7.30788605 Z M17.2717101,2.88785741 L16.2034226,5.35250188 L18.350514,5.35250188 L17.2717101,2.88785741 L17.2717101,2.88785741 Z" id="Fill-8"></path>
            <polyline id="Fill-9" points="29.9211457 2.2670866 29.9211457 3.96959661 33.6763647 3.96959661 33.6763647 5.92498079 29.9211457 5.92498079 29.9211457 9.2070759 27.9668543 9.2070759 27.9668543 0.309068351 33.8270993 0.309068351 33.8270993 2.2670866 29.9211457 2.2670866"></polyline>
            <path d="M42.0298649,7.30788605 L41.2017009,9.2070759 L39.0756424,9.2070759 L42.9255087,0.309068351 L44.9586728,0.309068351 L48.8190554,9.2070759 L46.6816039,9.2070759 L45.8665857,7.30788605 L42.0298649,7.30788605 L42.0298649,7.30788605 Z M43.9359563,2.88785741 L42.8694214,5.35250188 L45.0165128,5.35250188 L43.9359563,2.88785741 L43.9359563,2.88785741 Z" id="Fill-10"></path>
            <path d="M61.6069565,9.2070759 L59.2171122,9.2070759 L57.5853227,6.87150259 L56.5748754,6.87150259 L56.5748754,9.2070759 L54.6214604,9.2070759 L54.6214604,0.309068351 L57.8964321,0.309068351 C58.4003413,0.309068351 58.8621851,0.372286879 59.2793343,0.498723928 C59.6973596,0.626039019 60.0680618,0.813060491 60.3896872,1.05803228 C60.56496,1.20466414 60.7253346,1.36271045 60.8655526,1.53480533 C61.0075237,1.70865628 61.1249564,1.89392169 61.2152219,2.09411369 C61.4167857,2.51644856 61.5149383,2.97214877 61.5149383,3.46209235 C61.5149383,3.93271915 61.4290546,4.37700492 61.2625454,4.7993398 C61.1004181,5.204992 60.8602944,5.56674246 60.5386689,5.88107901 C60.2853999,6.13395313 60.0058397,6.33326708 59.6999889,6.47902092 L61.6069565,9.2070759 L61.6069565,9.2070759 Z M56.5748754,4.91348434 L57.9078247,4.91348434 C58.4520469,4.92928899 58.871825,4.78792533 59.1697887,4.48763733 C59.4309453,4.22773894 59.5606471,3.88618328 59.5606471,3.46209235 C59.5606471,2.66571453 59.0067851,2.2670866 57.8964321,2.2670866 L56.5748754,2.2670866 L56.5748754,4.91348434 L56.5748754,4.91348434 Z" id="Fill-11"></path>
            <path d="M71.3153154,9.44941358 C70.6799513,9.44941358 70.0700019,9.32648874 69.4889724,9.08063886 C68.9210891,8.83742313 68.424191,8.50289177 67.9947724,8.07792282 C67.5732417,7.64944168 67.2393468,7.15247382 66.9948417,6.58350709 C66.7494596,6.00136981 66.6267686,5.38937939 66.6267686,4.75280393 C66.6267686,4.13115508 66.7494596,3.52179874 66.9948417,2.92297881 C67.1175321,2.64639775 67.2612564,2.3847433 67.4260122,2.1345033 C67.5907686,1.88514133 67.7800635,1.65246204 67.9947724,1.43822147 C68.2164929,1.21520056 68.4522346,1.02115481 68.7002455,0.856962245 C68.950009,0.691013613 69.2111654,0.54701586 69.4889724,0.424968981 C70.0700019,0.179997193 70.6799513,0.0561942454 71.3153154,0.0561942454 C71.9357808,0.0561942454 72.5448538,0.179997193 73.1416577,0.424968981 C73.4177115,0.54701586 73.6797449,0.691013613 73.9286321,0.856962245 C74.1766429,1.02115481 74.4097558,1.21520056 74.6235885,1.43822147 C74.8461853,1.65246204 75.0389846,1.88514133 75.2037417,2.1345033 C75.3676212,2.3847433 75.5122218,2.64639775 75.6340359,2.92297881 C75.8802942,3.52179874 76.0029853,4.13115508 76.0029853,4.75280393 C76.0029853,5.38937939 75.8802942,6.00136981 75.6340359,6.58350709 C75.5122218,6.86008813 75.3676212,7.12262064 75.2037417,7.37022655 C75.0389846,7.62134454 74.8461853,7.85665795 74.6235885,8.07792282 C74.4097558,8.29304141 74.1766429,8.48445304 73.9286321,8.64952363 C73.6797449,8.81547227 73.4177115,8.95771395 73.1416577,9.08063886 C72.5448538,9.32648874 71.9357808,9.44941358 71.3153154,9.44941358 L71.3153154,9.44941358 Z M71.3153154,2.01421249 C70.9402314,2.01421249 70.5870571,2.08621137 70.2522859,2.23196519 C69.9192673,2.37684098 69.6300673,2.57352084 69.3846859,2.81937067 C69.1393038,3.06434245 68.943875,3.35409404 68.7983981,3.68774739 C68.6520455,4.02140072 68.5801833,4.37700492 68.5801833,4.75280393 C68.5801833,5.12860294 68.6520455,5.48420715 68.7983981,5.81698246 C68.943875,6.15151381 69.1393038,6.4412654 69.3846859,6.68623718 C69.6300673,6.93120901 69.9192673,7.12788887 70.2522859,7.27276464 C70.5870571,7.4193965 70.9402314,7.49227341 71.3153154,7.49227341 C71.6886462,7.49227341 72.04445,7.4193965 72.3765917,7.27276464 C72.7096096,7.12788887 72.9996865,6.93120901 73.2441917,6.68623718 C73.49045,6.4412654 73.6850032,6.15151381 73.8313558,5.81698246 C73.9768321,5.48420715 74.0504468,5.12860294 74.0504468,4.75280393 C74.0504468,4.37700492 73.9768321,4.02140072 73.8313558,3.68774739 C73.6850032,3.35409404 73.49045,3.06434245 73.2441917,2.81937067 C72.9996865,2.57352084 72.7096096,2.37684098 72.3765917,2.23196519 C72.04445,2.08621137 71.6886462,2.01421249 71.3153154,2.01421249 L71.3153154,2.01421249 Z" id="Fill-12"></path>
            <polyline id="Fill-13" points="83.5274449 2.2670866 83.5274449 3.96959661 87.2844167 3.96959661 87.2844167 5.92498079 83.5274449 5.92498079 83.5274449 9.2070759 81.5749064 9.2070759 81.5749064 0.309068351 87.4325224 0.309068351 87.4325224 2.2670866 83.5274449 2.2670866"></polyline>
            <polyline id="Fill-14" points="95.5564147 2.2670866 95.5564147 3.96959661 99.3125109 3.96959661 99.3125109 5.92498079 95.5564147 5.92498079 95.5564147 9.2070759 93.6021237 9.2070759 93.6021237 0.309068351 99.4623686 0.309068351 99.4623686 2.2670866 95.5564147 2.2670866"></polyline>
        </g>
    </g>
</svg>