<?xml version="1.0" encoding="UTF-8"?>
<svg width="166px" height="37px" viewBox="0 0 166 37" version="1.1" xmlns="http://www.w3.org/2000/svg" xmlns:xlink="http://www.w3.org/1999/xlink">
    <!-- Generator: Sketch 60 (88103) - https://sketch.com -->
    <title>db farid</title>
    <desc>Created with Sketch.</desc>
    <g id="Main" stroke="none" stroke-width="1" fill="none" fill-rule="evenodd">
        <g id="About" transform="translate(-93.000000, -30.000000)" fill="#FFFFFF" fill-rule="nonzero">
            <g id="header">
                <g id="db-farid" transform="translate(176.000000, 48.500000) rotate(-270.000000) translate(-176.000000, -48.500000) translate(158.000000, -34.000000)">
                    <path d="M12.888,159.9264 L29.124,159.9264 L29.124,157.9392 C29.124,157.0104 29.0232,156.1968 28.836,155.4912 C28.6416,154.7856 28.3608,154.2096 28.0008,153.756 C27.4608,153.1008 26.7408,152.6328 25.8552,152.3664 C24.9696,152.1 23.328,151.9632 20.9304,151.9632 C18.828,151.9632 17.3232,152.0856 16.416,152.316 C15.5088,152.5464 14.7888,152.9424 14.2488,153.4968 C13.7808,153.9936 13.4352,154.6128 13.2192,155.3544 C12.996,156.096 12.888,157.0464 12.888,158.1984 L12.888,159.9264 Z M29.124,162.7128 L12.888,162.7128 L12.888,164.7864 L12.2256,164.7864 L12.2256,158.076 C12.2256,155.1384 12.9672,152.8776 14.4576,151.2864 C15.9408,149.6952 18.0576,148.896 20.808,148.896 C22.4352,148.896 23.8896,149.1912 25.164,149.7744 C26.4384,150.3504 27.504,151.2144 28.3608,152.3592 C28.8504,153.0144 29.2104,153.7848 29.4408,154.656 C29.6712,155.5344 29.7864,156.5856 29.7864,157.8024 L29.7864,164.7864 L29.124,164.7864 L29.124,162.7128 Z" id="Shape"></path>
                    <polygon id="Path" points="23.4864 144.756 29.124 146.7 29.124 144.3888 29.7864 144.3888 29.7864 149.7888 29.124 149.7888 29.124 147.6072 11.7792 141.3432 11.7792 140.652 29.124 134.8128 29.124 132.8904 29.7864 132.8904 29.7864 139.8744 29.124 139.8744 29.124 137.6064 23.4864 139.4496 22.7016 139.6944 15.6528 142.0128 22.7016 144.4968"></polygon>
                    <path d="M34.6248,128.9304 L33.6096,128.4624 C33.9048,127.908 34.1352,127.368 34.3008,126.8352 C34.4664,126.3024 34.5456,125.8272 34.5456,125.4096 C34.5456,124.8264 34.452,124.4016 34.2576,124.1352 C34.056,123.8688 33.7536,123.732 33.336,123.732 C32.976,123.732 32.6952,123.8688 32.4936,124.1424 C32.292,124.416 32.184,124.7904 32.184,125.2728 C32.184,125.4024 32.1984,125.5392 32.2128,125.6976 C32.2272,125.8488 32.2488,126 32.2632,126.1296 L29.7864,126.144 L29.7864,125.2728 L31.248,125.2728 C31.2264,125.1288 31.212,124.9848 31.2048,124.8408 C31.1904,124.704 31.176,124.5672 31.1688,124.4448 C31.1688,123.6528 31.356,123.0408 31.7376,122.6016 C32.112,122.1624 32.6376,121.9464 33.3072,121.9464 C34.02,121.9464 34.5816,122.2128 34.992,122.7456 C35.4024,123.2784 35.604,124.0056 35.604,124.9344 C35.604,125.4312 35.532,125.9856 35.3808,126.5976 C35.2368,127.2096 34.9848,127.98 34.6248,128.9304 Z M29.8656,130.5504 L29.8656,131.0256 L25.2432,131.0256 L25.2432,130.4928 C26.5464,130.0608 27.5688,129.3696 28.3248,128.4336 C29.0736,127.4904 29.448,126.432 29.448,125.244 C29.448,123.9264 29.052,122.8176 28.26,121.9104 C27.4752,121.0104 26.5104,120.5568 25.3728,120.5568 C24.0336,120.5568 22.9536,121.932 22.1256,124.6752 C22.068,124.8912 22.0176,125.0568 21.9816,125.1648 C21.2688,127.512 20.5344,129.0672 19.7856,129.8448 C19.0296,130.6152 18.0144,131.004 16.7256,131.004 C15.2784,131.004 14.1048,130.5072 13.1976,129.5136 C12.2904,128.5272 11.8296,127.2312 11.8296,125.64 C11.8296,124.4592 12.1464,123.3576 12.7656,122.328 C12.888,122.1408 12.9456,122.0256 12.9456,121.9896 C12.9384,121.932 12.924,121.8888 12.9024,121.8456 C12.8808,121.8024 12.8448,121.7664 12.8016,121.7304 L12.168,121.1976 L12.168,120.6072 L16.1928,120.6072 L16.1928,121.1184 C14.9544,121.5576 14.0328,122.184 13.4208,122.9904 C12.8088,123.7968 12.4992,124.776 12.4992,125.9424 C12.4992,126.9936 12.7944,127.8864 13.392,128.6064 C13.9896,129.3336 14.7168,129.6936 15.5736,129.6936 C16.2864,129.6936 16.8696,129.4128 17.3304,128.8584 C17.784,128.304 18.1728,127.3968 18.4896,126.1296 C18.5328,125.9496 18.5976,125.676 18.6984,125.3016 C19.2384,123.192 19.7496,121.7952 20.2464,121.1184 C20.6928,120.5136 21.2472,120.06 21.9024,119.7432 C22.5648,119.4336 23.3136,119.2752 24.1488,119.2752 C25.9704,119.2752 27.4176,119.8368 28.4976,120.96 C29.5704,122.0832 30.1104,123.5952 30.1104,125.5032 C30.1104,126.8424 29.7576,128.0664 29.0592,129.1752 C28.944,129.3552 28.8864,129.4632 28.8864,129.4848 C28.8864,129.5136 28.9008,129.5496 28.9296,129.5928 C28.9512,129.6288 28.9872,129.672 29.0304,129.7224 L29.8656,130.5504 Z" id="Shape"></path>
                    <path d="M29.7864,118.2384 L29.1168,118.2384 L29.1168,115.9488 L12.888,115.9488 L12.888,118.1448 L12.2256,118.1448 L12.2256,110.6352 L12.888,110.6352 L12.888,113.1552 L29.1168,113.1552 L29.1168,109.3752 C29.1168,107.9928 28.8216,106.9704 28.2168,106.3008 C27.612,105.6384 26.4816,105.0984 24.84,104.688 L24.84,104.1552 L29.7864,104.472 L29.7864,118.2384 Z" id="Path"></path>
                    <polygon id="Path" points="29.7864 102.456 29.1168 102.456 29.1168 100.1376 12.888 100.1376 12.888 102.456 12.2256 102.456 12.2256 94.968 12.888 94.968 12.888 97.344 29.1168 97.344 29.1168 94.968 29.7864 94.968"></polygon>
                    <path d="M20.8872,77.5224 L29.124,77.5224 L29.124,75.096 C29.124,73.5696 28.836,72.5256 28.2744,71.964 C27.7056,71.4096 26.6544,71.1288 25.1136,71.1288 C23.5728,71.1288 22.4856,71.4456 21.8448,72.0792 C21.2112,72.72 20.8872,73.8072 20.8872,75.3408 L20.8872,77.5224 Z M20.2248,77.5224 L20.2248,75.4488 C20.2248,73.9512 19.9512,72.9216 19.4112,72.36 C18.8712,71.8056 17.856,71.5248 16.3656,71.5248 C15.048,71.5248 14.1408,71.8056 13.644,72.36 C13.14,72.9216 12.888,73.9872 12.888,75.5568 L12.888,77.5224 L20.2248,77.5224 Z M29.7864,82.2672 L29.124,82.2672 L29.124,80.2656 L12.888,80.2656 L12.888,82.2672 L12.2256,82.2672 L12.2256,75.2328 C12.2256,73.116 12.5712,71.496 13.2696,70.38 C13.9608,69.2568 14.976,68.7024 16.2936,68.7024 C17.388,68.7024 18.2952,69.0912 19.0152,69.876 C19.7352,70.6536 20.2032,71.7624 20.4336,73.188 L20.5344,73.188 C20.7864,71.6256 21.312,70.38 22.1112,69.4656 C22.9176,68.544 23.868,68.0904 24.9696,68.0904 C26.5104,68.0904 27.6984,68.7168 28.5336,69.9768 C29.3688,71.2368 29.7864,73.0224 29.7864,75.3408 L29.7864,82.2672 Z" id="Shape"></path>
                    <path d="M25.344,64.0008 L12.888,64.0008 L12.888,66.1536 L12.2256,66.1536 L12.2256,59.2272 L12.888,59.2272 L12.888,61.3512 L25.1928,61.3512 C26.5464,61.3512 27.5832,61.02 28.2888,60.3576 C29.0016,59.6952 29.3544,58.7304 29.3544,57.4704 C29.3544,55.9944 28.9152,54.8784 28.044,54.1152 C27.1656,53.352 25.884,52.9704 24.1992,52.9704 L12.888,52.9704 L12.888,55.0656 L12.2256,55.0656 L12.2256,50.04 L12.888,50.04 L12.888,52.1352 L24.2784,52.1352 C26.2944,52.1352 27.792,52.6392 28.7712,53.64 C29.7504,54.648 30.24,56.1888 30.24,58.2624 C30.24,60.0408 29.808,61.4448 28.9368,62.4672 C28.0656,63.4896 26.8704,64.0008 25.344,64.0008 Z" id="Path"></path>
                    <path d="M29.7864,48.7728 L29.1168,48.7728 L29.1168,46.4832 L12.888,46.4832 L12.888,48.6792 L12.2256,48.6792 L12.2256,41.1624 L12.888,41.1624 L12.888,43.6824 L29.1168,43.6824 L29.1168,39.9096 C29.1168,38.5272 28.8216,37.5048 28.2168,36.8352 C27.612,36.1656 26.4816,35.6256 24.84,35.2152 L24.84,34.6896 L29.7864,34.9992 L29.7864,48.7728 Z" id="Path"></path>
                    <polygon id="Path" points="22.7016 23.4864 15.6528 25.7976 22.7016 28.2816 23.4864 28.5408 29.124 30.492 29.124 28.1736 29.7864 28.1736 29.7864 33.5736 29.124 33.5736 29.124 31.392 11.7792 25.1352 11.7792 24.4368 29.124 18.6048 29.124 16.6824 29.7864 16.6824 29.7864 23.6592 29.124 23.6592 29.124 21.3984 23.4864 23.2344"></polygon>
                    <path d="M12.6288,8.3304 C12.6288,10.08 13.3056,11.3184 14.6664,12.0456 C16.0272,12.7728 18.4392,13.1328 21.9096,13.1328 C24.4512,13.1328 26.3376,12.7368 27.5832,11.9448 C28.8288,11.1456 29.448,9.936 29.448,8.3016 C29.448,6.7176 28.8432,5.5296 27.6408,4.7376 C26.4384,3.9456 24.6384,3.5496 22.2552,3.5496 C18.4752,3.5496 15.9192,3.9024 14.6016,4.6008 C13.284,5.3064 12.6288,6.5448 12.6288,8.3304 Z M34.9776,2.1096 L35.6472,2.1096 L35.6472,2.808 C35.6472,5.3136 35.2368,7.1208 34.4232,8.244 C33.6096,9.3672 32.2992,9.936 30.4992,9.936 L30.1104,9.936 C29.7792,11.7648 28.7712,13.284 27.072,14.4792 C25.38,15.6744 23.3784,16.272 21.0672,16.272 C19.7568,16.272 18.5616,16.0776 17.4744,15.696 C16.3944,15.3072 15.4224,14.724 14.5584,13.9536 C13.7016,13.176 13.0536,12.3264 12.6144,11.3976 C12.1824,10.476 11.9664,9.4824 11.9664,8.4384 C11.9664,7.3224 12.1752,6.2928 12.6,5.3568 C13.0248,4.4208 13.68,3.5568 14.5584,2.7792 C15.4368,1.9872 16.4304,1.3896 17.5248,0.9864 C18.6264,0.5904 19.8144,0.3888 21.096,0.3888 C23.3928,0.3888 25.3872,0.9936 27.0792,2.2104 C28.7712,3.4272 29.7792,4.968 30.1104,6.8256 C30.1896,6.8256 30.2976,6.8328 30.4488,6.8472 C30.5928,6.8544 30.7008,6.8616 30.7656,6.8616 C32.2704,6.8616 33.3504,6.5016 33.9984,5.7816 C34.6536,5.0544 34.9776,3.8736 34.9776,2.2248 L34.9776,2.1096 Z" id="Shape"></path>
                    <path d="M0.4536,158.9976 L2.4192,158.9976 L2.4192,159.1416 C1.8864,159.3288 1.476,159.6168 1.2024,159.9912 C0.9216,160.3728 0.7848,160.7832 0.7848,161.2368 C0.7848,161.6688 0.9,162.0216 1.1376,162.3096 C1.368,162.5904 1.6992,162.7992 2.1168,162.9144 C2.5344,163.0296 2.9664,163.0944 3.4056,163.0944 C3.9456,163.0944 4.4136,163.0296 4.8168,162.9 C5.22,162.7704 5.5152,162.5616 5.7024,162.2736 C5.8896,161.9784 5.9832,161.64 5.9832,161.244 C5.9832,161.1072 5.9688,160.9632 5.94,160.8192 C5.9112,160.6752 5.8752,160.524 5.8176,160.3728 L4.6584,160.3728 C4.4352,160.3728 4.2912,160.3872 4.2264,160.416 C4.1616,160.4448 4.104,160.5168 4.0536,160.6104 C3.996,160.704 3.9672,160.8264 3.9672,160.9632 L3.9672,161.1072 L3.8304,161.1072 L3.8304,158.3208 L3.9672,158.3208 C3.9816,158.5296 4.0104,158.6808 4.0536,158.76 C4.0968,158.8464 4.1688,158.9112 4.2696,158.9544 C4.3272,158.9832 4.4568,158.9976 4.6584,158.9976 L5.8176,158.9976 C5.976,159.3576 6.0984,159.7392 6.1776,160.1352 C6.2568,160.5312 6.3,160.9416 6.3,161.3736 C6.3,161.9136 6.228,162.3672 6.084,162.7272 C5.94,163.0872 5.7456,163.404 5.5152,163.6776 C5.2776,163.9512 5.0112,164.1672 4.7232,164.3184 C4.3416,164.52 3.9168,164.6136 3.4488,164.6136 C2.6064,164.6136 1.9008,164.3112 1.3248,163.7064 C0.7416,163.1016 0.4536,162.3384 0.4536,161.4168 C0.4536,161.1288 0.4752,160.8768 0.5184,160.6464 C0.54,160.524 0.6048,160.3224 0.7056,160.0416 C0.8064,159.7608 0.8568,159.6024 0.8568,159.552 C0.8568,159.4728 0.828,159.3936 0.7776,159.3288 C0.72,159.2568 0.612,159.1992 0.4536,159.1416 L0.4536,158.9976 Z M3.3696,152.1432 C4.2264,152.1432 4.9248,152.4168 5.472,152.9568 C6.0264,153.504 6.3,154.2096 6.3,155.088 C6.3,155.9664 6.0264,156.6576 5.4864,157.1616 C4.9536,157.644 4.248,157.8888 3.3552,157.8888 C3.2976,157.8888 3.2184,157.8888 3.1176,157.8816 L3.1176,153.648 C2.4768,153.6696 1.9584,153.792 1.5696,154.008 C1.0584,154.296 0.7992,154.728 0.7992,155.3184 C0.7992,155.7648 0.936,156.1464 1.2024,156.456 C1.4616,156.7656 1.8144,156.96 2.2536,157.0464 L2.2536,157.1904 L0.4536,157.1904 L0.4536,157.0464 C0.6912,156.9744 0.8064,156.852 0.8064,156.672 C0.8064,156.5928 0.7488,156.3768 0.6336,156.0312 C0.5112,155.6784 0.4536,155.3328 0.4536,154.9944 C0.4536,154.1664 0.7344,153.4824 1.2888,152.9496 C1.8504,152.4096 2.5416,152.1432 3.3696,152.1432 Z M3.4848,153.648 L3.4848,156.3552 C4.2408,156.3552 4.7808,156.3048 5.0976,156.2112 C5.688,156.0312 5.9832,155.6568 5.9832,155.088 C5.9832,154.1304 5.148,153.648 3.4848,153.648 Z M6.1704,151.7184 L6.0264,151.7184 L6.0264,151.5312 C6.0264,151.3656 6.0048,151.236 5.9472,151.1496 C5.8968,151.0632 5.832,150.9912 5.7384,150.9552 C5.6808,150.9264 5.508,150.912 5.22,150.912 L1.5336,150.912 C1.2456,150.912 1.0656,150.9336 0.9936,150.9624 C0.9216,150.9912 0.8568,151.056 0.8064,151.1496 C0.7488,151.2432 0.7272,151.3728 0.7272,151.5312 L0.7272,151.7184 L0.5832,151.7184 L0.5832,149.1552 C0.5832,148.464 0.6696,147.9168 0.8568,147.4992 C1.0728,146.988 1.4112,146.5992 1.8648,146.34 C2.3112,146.0736 2.8224,145.944 3.3912,145.944 C3.7872,145.944 4.1472,146.0088 4.4784,146.1384 C4.8096,146.268 5.0832,146.4336 5.2992,146.6424 C5.5152,146.844 5.688,147.0816 5.8176,147.3552 C5.9472,147.6216 6.048,147.9528 6.12,148.3416 C6.156,148.5144 6.1704,148.7808 6.1704,149.1552 L6.1704,151.7184 Z M0.8928,149.5368 L5.256,149.5368 C5.4864,149.5368 5.6232,149.5224 5.6808,149.5008 C5.7312,149.4792 5.7672,149.4432 5.796,149.3856 C5.8392,149.3136 5.8608,149.2056 5.8608,149.0544 C5.8608,148.5864 5.7024,148.2264 5.3928,147.9744 C4.968,147.636 4.3056,147.4632 3.42,147.4632 C2.7,147.4632 2.1312,147.5856 1.6992,147.816 C1.368,147.996 1.1376,148.2336 1.0152,148.5216 C0.9288,148.7304 0.8928,149.0616 0.8928,149.5368 Z M3.3696,139.4856 C4.2264,139.4856 4.9248,139.7592 5.472,140.2992 C6.0264,140.8464 6.3,141.552 6.3,142.4304 C6.3,143.3088 6.0264,144 5.4864,144.504 C4.9536,144.9936 4.248,145.2312 3.3552,145.2312 C3.2976,145.2312 3.2184,145.2312 3.1176,145.224 L3.1176,140.9976 C2.4768,141.012 1.9584,141.1344 1.5696,141.3504 C1.0584,141.6384 0.7992,142.0704 0.7992,142.6608 C0.7992,143.1072 0.936,143.4888 1.2024,143.7984 C1.4616,144.108 1.8144,144.3024 2.2536,144.3888 L2.2536,144.54 L0.4536,144.54 L0.4536,144.3888 C0.6912,144.3168 0.8064,144.1944 0.8064,144.0144 C0.8064,143.9352 0.7488,143.7192 0.6336,143.3736 C0.5112,143.0208 0.4536,142.6824 0.4536,142.3368 C0.4536,141.5088 0.7344,140.8248 1.2888,140.292 C1.8504,139.752 2.5416,139.4856 3.3696,139.4856 Z M3.4848,140.9976 L3.4848,143.6976 C4.2408,143.6976 4.7808,143.6472 5.0976,143.5536 C5.688,143.3736 5.9832,142.9992 5.9832,142.4304 C5.9832,141.4728 5.148,140.9976 3.4848,140.9976 Z M3.204,135.3312 C3.3264,134.784 3.4776,134.3952 3.6576,134.1792 C3.9024,133.8624 4.2264,133.704 4.6296,133.704 C5.0472,133.704 5.4,133.8768 5.6736,134.2224 C6.0048,134.6472 6.1704,135.2664 6.1704,136.08 L6.1704,138.996 L6.0264,138.996 C6.0264,138.7296 6.0048,138.5496 5.9544,138.456 C5.904,138.3624 5.8464,138.2976 5.7672,138.2544 C5.688,138.2184 5.5008,138.1968 5.1912,138.1968 L1.5624,138.1968 C1.2528,138.1968 1.0656,138.2184 0.9864,138.2544 C0.9072,138.2976 0.8424,138.3624 0.792,138.456 C0.7488,138.5568 0.7272,138.7296 0.7272,138.996 L0.5832,138.996 L0.5832,136.2456 C0.5832,135.5832 0.6408,135.1224 0.7488,134.8488 C0.864,134.5752 1.0368,134.3592 1.26,134.2008 C1.4904,134.0424 1.728,133.9632 1.9872,133.9632 C2.2536,133.9632 2.4912,134.064 2.7072,134.2656 C2.916,134.4672 3.0816,134.82 3.204,135.3312 Z M3.096,136.872 C3.096,136.4688 3.0528,136.1736 2.9592,135.9792 C2.8728,135.7848 2.7504,135.6408 2.592,135.54 C2.4336,135.432 2.2248,135.3816 1.98,135.3816 C1.7352,135.3816 1.5336,135.432 1.3752,135.5328 C1.2168,135.6336 1.0944,135.7776 1.0152,135.9648 C0.9288,136.1592 0.8928,136.4544 0.8928,136.872 L3.096,136.872 Z M3.4128,136.872 L5.2056,136.872 L5.4072,136.872 C5.5584,136.872 5.6736,136.836 5.7456,136.7568 C5.8176,136.6848 5.8608,136.5696 5.8608,136.4184 C5.8608,136.1952 5.8104,135.9936 5.7096,135.8064 C5.616,135.6192 5.472,135.4752 5.292,135.3744 C5.1048,135.2736 4.896,135.2232 4.6728,135.2232 C4.4136,135.2232 4.1832,135.2808 3.9744,135.396 C3.7656,135.504 3.6216,135.6696 3.5352,135.8928 C3.4488,136.1088 3.4128,136.44 3.4128,136.872 Z M3.3696,127.3104 C4.2264,127.3104 4.9248,127.5768 5.472,128.124 C6.0264,128.6712 6.3,129.3768 6.3,130.248 C6.3,131.1336 6.0264,131.8248 5.4864,132.3216 C4.9536,132.8112 4.248,133.056 3.3552,133.056 C3.2976,133.056 3.2184,133.0488 3.1176,133.0416 L3.1176,128.8152 C2.4768,128.8368 1.9584,128.952 1.5696,129.1752 C1.0584,129.456 0.7992,129.8952 0.7992,130.4856 C0.7992,130.932 0.936,131.3136 1.2024,131.6232 C1.4616,131.9328 1.8144,132.1272 2.2536,132.2136 L2.2536,132.3576 L0.4536,132.3576 L0.4536,132.2136 C0.6912,132.1344 0.8064,132.012 0.8064,131.8392 C0.8064,131.76 0.7488,131.544 0.6336,131.1912 C0.5112,130.8456 0.4536,130.5 0.4536,130.1616 C0.4536,129.3336 0.7344,128.6496 1.2888,128.1096 C1.8504,127.5768 2.5416,127.3104 3.3696,127.3104 Z M3.4848,128.8152 L3.4848,131.5152 C4.2408,131.5152 4.7808,131.472 5.0976,131.3784 C5.688,131.1912 5.9832,130.8168 5.9832,130.2552 C5.9832,129.2976 5.148,128.8152 3.4848,128.8152 Z M0.5832,120.8376 L0.7272,120.8376 C0.7488,121.0248 0.7992,121.1688 0.8856,121.2696 C1.0008,121.4136 1.3176,121.6368 1.836,121.9392 L3.8664,123.1848 L5.22,123.1848 C5.508,123.1848 5.688,123.1704 5.76,123.1416 C5.832,123.1128 5.8896,123.048 5.9472,122.9544 C5.9976,122.8608 6.0264,122.7456 6.0264,122.5872 L6.0264,122.2704 L6.1704,122.2704 L6.1704,125.4816 L6.0264,125.4816 L6.0264,125.1792 C6.0264,125.0136 5.9976,124.884 5.94,124.7832 C5.904,124.7112 5.832,124.6536 5.7384,124.6104 C5.6736,124.5816 5.5008,124.56 5.22,124.56 L4.0968,124.56 L1.692,125.9136 C1.2168,126.18 0.936,126.3744 0.8568,126.4824 C0.7704,126.5904 0.7272,126.7416 0.7272,126.9216 L0.5832,126.9216 L0.5832,124.1712 L0.7272,124.1712 L0.7272,124.2936 C0.7272,124.4592 0.7488,124.5744 0.7992,124.6464 C0.8424,124.7112 0.8928,124.7472 0.9432,124.7472 C1.044,124.7472 1.296,124.632 1.6992,124.4016 L3.5424,123.3648 L1.8648,122.328 C1.4472,122.076 1.1736,121.9464 1.0368,121.9464 C0.9648,121.9464 0.9,121.9824 0.8496,122.0544 C0.7776,122.148 0.7416,122.328 0.7272,122.58 L0.5832,122.58 L0.5832,120.8376 Z" id="Shape"></path>
                </g>
            </g>
        </g>
    </g>
</svg>