<?xml version="1.0" encoding="UTF-8"?>
<svg width="24px" height="24px" viewBox="0 0 24 24" version="1.1" xmlns="http://www.w3.org/2000/svg" xmlns:xlink="http://www.w3.org/1999/xlink">
    <!-- Generator: Sketch 59.1 (86144) - https://sketch.com -->
    <title>Youtube active</title>
    <desc>Created with Sketch.</desc>
    <g id="Youtube-active" stroke="none" stroke-width="1" fill="none" fill-rule="evenodd">
        <g id="youtube-(1)" transform="translate(2.000000, 5.000000)" fill="#FF0000" fill-rule="nonzero">
            <path d="M10.072005,0.000155786916 C10.8490418,0.00218101683 16.3401016,0.0305342356 17.7905702,0.427479298 C18.6455287,0.657742456 19.3197186,1.33177996 19.5498294,2.18689084 C19.9346979,3.59259259 19.9599303,6.37025157 19.9611281,6.91172635 L19.9609757,7.04617778 C19.9592704,7.42886884 19.9336898,10.3476486 19.5499817,11.8055556 C19.3197186,12.6605142 18.6456811,13.3347039 17.7905702,13.5648148 C16.4144846,13.9270485 11.4017194,13.9701716 10.2277063,13.9753053 L9.7339177,13.9752778 C8.5627121,13.9699406 3.56088427,13.9251086 2.17044347,13.5485197 C1.31533259,13.3182566 0.641295088,12.6440667 0.41103193,11.7891082 C0.041103193,10.398072 0.0041103193,7.62200294 0.00041103193,7.08069949 L0.00041103193,6.89573954 C0.0041103193,6.35692923 0.041103193,3.59259259 0.41103193,2.18689084 C0.641142768,1.33193224 1.33177996,0.641295088 2.17029119,0.411184211 C3.6207598,0.0293703008 9.11168827,0.00209787863 9.88870627,0.000149848473 Z M7.99098441,3.9954922 L7.99098441,9.98050682 L13.1866776,6.98799953 L7.99098441,3.9954922 Z" id="Combined-Shape"></path>
        </g>
    </g>
</svg>